#!OML:ASF F:\twosubjects\two\Thursday\Session 1\Rory.ASF
:FULLY-SPECIFIED
:DEGREES
361
root 12.1997 17.7885 -13.9115 0.56071 -24.7598 4.93301
lowerback 1.567 0.160346 -3.34879
upperback 2.16343 0.189729 -0.178702
thorax 1.33116 0.0448674 1.69238
lowerneck -9.22995 1.59734 0.414814
upperneck 19.8112 3.27653 -5.99062
head 7.73031 1.00708 -1.73693
rclavicle 5.17834e-014 -3.57812e-015
rhumerus -36.4799 -16.5266 -74.7261
rradius 29.0795
rwrist 20.2555
rhand -22.4051 22.4609
rfingers 7.12502
rthumb 4.0176 -7.48095
lclavicle 5.17834e-014 -3.57812e-015
lhumerus -33.6508 12.8133 83.6991
lradius 38.7235
lwrist -17.1019
lhand -16.3047 30.4533
lfingers 7.12502
lthumb 9.90618 60.2002
rfemur -10.1404 3.39309 19.2139
rtibia 25.8597
rfoot -16.5585 -10.1708
rtoes -7.09764
lfemur -12.5717 3.58891 -12.3187
ltibia 28.5054
lfoot -8.68437 7.95651
ltoes 21.2628
362
root 12.2071 17.7848 -13.899 0.629518 -24.6765 4.98795
lowerback 1.28153 0.224469 -3.57397
upperback 2.16461 0.286754 -0.223382
thorax 1.48703 0.087836 1.77338
lowerneck -9.96223 1.45568 0.779362
upperneck 20.3527 3.08238 -6.10868
head 8.04248 0.906254 -1.8579
rclavicle -1.4064e-014 -3.97569e-016
rhumerus -36.3289 -16.8202 -74.6748
rradius 29.3596
rwrist 19.5946
rhand -22.587 24.3466
rfingers 7.12502
rthumb 3.84194 -5.59855
lclavicle -1.4064e-014 -3.97569e-016
lhumerus -33.6023 13.2348 83.5832
lradius 37.8972
lwrist -17.8304
lhand -8.85765 35.1043
lfingers 7.12502
lthumb 17.0835 64.3731
rfemur -10.2432 3.49411 19.1099
rtibia 25.9782
rfoot -16.6844 -10.3539
rtoes -7.67736
lfemur -12.0802 3.04889 -12.4464
ltibia 27.9119
lfoot -8.74512 7.84949
ltoes 21.2216
363
root 12.2139 17.7806 -13.8877 0.668795 -24.6401 5.07029
lowerback 1.10749 0.106878 -3.96723
upperback 2.02077 0.133133 -0.096215
thorax 1.44567 0.00714975 2.12466
lowerneck -9.86006 1.43065 0.349576
upperneck 20.6141 3.10019 -5.93946
head 8.10408 0.892195 -1.73046
rclavicle -3.18055e-014 2.78299e-015
rhumerus -36.288 -16.2266 -74.5736
rradius 29.6466
rwrist 18.9723
rhand -22.7597 24.8049
rfingers 7.12502
rthumb 3.67512 -5.14312
lclavicle -3.18055e-014 2.78299e-015
lhumerus -33.9723 14.0232 83.437
lradius 37.1385
lwrist -18.2143
lhand -15.9706 29.3209
lfingers 7.12502
lthumb 10.2285 59.0522
rfemur -10.3289 3.70319 18.975
rtibia 26.0707
rfoot -16.7991 -10.5477
rtoes -7.4845
lfemur -11.5922 2.78847 -12.6322
ltibia 27.3602
lfoot -8.43276 7.23687
ltoes 21.7535
364
root 12.2229 17.7748 -13.8745 0.761783 -24.6099 4.91743
lowerback 0.973171 -0.0680418 -4.11301
upperback 1.84564 -0.0993055 0.128776
thorax 1.3576 -0.108041 2.43742
lowerneck -9.47549 1.44737 -0.189181
upperneck 20.6282 3.18856 -5.84158
head 8.03389 0.90628 -1.6005
rclavicle 7.20594e-015 -1.23246e-014
rhumerus -36.2197 -15.6356 -74.3566
rradius 29.8054
rwrist 18.5742
rhand -22.8781 24.155
rfingers 7.12502
rthumb 3.56084 -5.79499
lclavicle 7.20594e-015 -1.23246e-014
lhumerus -34.4937 14.9136 83.2462
lradius 36.4529
lwrist -18.4461
lhand -6.34327 35.5158
lfingers 7.12502
lthumb 19.5023 64.5577
rfemur -10.3699 3.84868 19.0659
rtibia 26.1564
rfoot -16.8644 -10.6172
rtoes -6.14932
lfemur -11.0865 2.51321 -12.587
ltibia 26.8543
lfoot -8.09939 6.58173
ltoes 22.063
365
root 12.2348 17.7652 -13.8587 0.802327 -24.5153 4.69305
lowerback 0.826575 -0.123723 -4.07646
upperback 1.84724 -0.16722 0.19913
thorax 1.44657 -0.143782 2.48877
lowerneck -9.6229 1.38927 -0.0540721
upperneck 20.7525 3.12339 -5.9814
head 8.10433 0.866444 -1.67677
rclavicle -1.41137e-014 2.5842e-014
rhumerus -35.9574 -15.3513 -74.4762
rradius 29.9011
rwrist 17.8027
rhand -22.9847 24.1457
rfingers 7.12502
rthumb 3.45784 -5.80603
lclavicle -1.41137e-014 2.5842e-014
lhumerus -34.5085 15.3452 83.0121
lradius 35.5288
lwrist -18.7264
lhand -13.5375 30.5511
lfingers 7.12502
lthumb 12.575 60.1526
rfemur -10.3137 3.75487 19.2304
rtibia 26.243
rfoot -16.9076 -10.6049
rtoes -5.96211
lfemur -10.5199 2.0736 -12.4865
ltibia 26.3802
lfoot -7.96606 6.08277
ltoes 21.5594
366
root 12.2486 17.7632 -13.8427 0.749013 -24.4285 4.55994
lowerback 0.722826 -0.156161 -4.04564
upperback 1.8943 -0.204845 0.203006
thorax 1.55586 -0.165158 2.47487
lowerneck -9.90549 1.28802 -0.154732
upperneck 21.0253 2.99764 -5.8641
head 8.24036 0.798439 -1.6347
rclavicle 4.02539e-015 1.43125e-014
rhumerus -35.4688 -15.1283 -74.6737
rradius 29.6242
rwrist 17.111
rhand -23.092 24.2777
rfingers 7.12502
rthumb 3.35426 -5.67562
lclavicle 4.02539e-015 1.43125e-014
lhumerus -34.4714 15.956 82.6732
lradius 34.444
lwrist -19.8169
lhand -18.5246 27.7612
lfingers 7.12502
lthumb 7.76405 57.5986
rfemur -10.1876 3.65321 19.2991
rtibia 26.3424
rfoot -17.0753 -10.5487
rtoes -6.01677
lfemur -9.90445 1.57744 -12.5186
ltibia 25.8922
lfoot -7.95346 5.55285
ltoes 18.415
367
root 12.261 17.7652 -13.83 0.820111 -24.4015 4.32471
lowerback 0.599194 -0.263065 -3.96678
upperback 1.79599 -0.345214 0.342267
thorax 1.53466 -0.233112 2.57262
lowerneck -9.92479 1.26061 -0.642548
upperneck 21.3153 3.01635 -5.64546
head 8.33368 0.780845 -1.4802
rclavicle -8.57259e-014 1.03368e-014
rhumerus -35.1588 -15.45 -74.3908
rradius 29.3581
rwrist 17.5008
rhand -23.4966 24.3268
rfingers 7.12502
rthumb 2.96352 -5.6324
lclavicle -8.57259e-014 1.03368e-014
lhumerus -34.7416 16.6596 82.4292
lradius 33.3547
lwrist -20.8863
lhand -21.3449 27.1664
lfingers 7.12502
lthumb 5.04131 57.0865
rfemur -10.1431 3.61467 19.4737
rtibia 26.4246
rfoot -17.2962 -10.4186
rtoes -5.30136
lfemur -9.33182 1.31646 -12.4695
ltibia 25.3474
lfoot -8.17846 4.81627
ltoes 13.6222
368
root 12.276 17.7618 -13.8152 0.955994 -24.2695 4.21722
lowerback 0.346744 -0.292702 -3.99365
upperback 1.69008 -0.375281 0.365805
thorax 1.57013 -0.247518 2.6107
lowerneck -10.1466 1.18249 -0.518427
upperneck 21.7551 2.91787 -5.6664
head 8.52219 0.726482 -1.52179
rclavicle 6.8531e-014 -1.19271e-015
rhumerus -35.3797 -15.9812 -74.1077
rradius 29.9551
rwrist 17.7087
rhand -23.9502 23.8169
rfingers 7.12502
rthumb 2.52542 -6.14785
lclavicle 6.8531e-014 -1.19271e-015
lhumerus -34.6379 16.5572 82.3159
lradius 32.0522
lwrist -21.405
lhand -19.8181 27.6641
lfingers 7.12502
lthumb 6.51538 57.5439
rfemur -10.2219 3.2751 19.485
rtibia 26.4656
rfoot -17.4105 -10.1532
rtoes -5.43974
lfemur -8.86039 0.8875 -12.542
ltibia 24.7193
lfoot -8.66644 4.45564
ltoes 12.1368
369
root 12.2921 17.7653 -13.7971 1.04417 -24.0578 4.20786
lowerback 0.0728471 0.0593204 -3.89492
upperback 1.78152 0.11234 -0.00618667
thorax 1.78178 -0.00508084 2.17818
lowerneck -11.0465 0.76526 0.599064
upperneck 22.4164 2.19374 -5.75903
head 8.90064 0.442338 -1.82575
rclavicle 3.44891e-014 -6.75868e-015
rhumerus -35.6839 -17.6326 -74.008
rradius 30.5994
rwrist 17.5666
rhand -24.0532 23.3804
rfingers 7.12502
rthumb 2.426 -6.58553
lclavicle 3.44891e-014 -6.75868e-015
lhumerus -33.9304 15.6605 82.0534
lradius 30.8401
lwrist -22.4993
lhand -14.5231 28.3259
lfingers 7.12502
lthumb 11.6247 57.9835
rfemur -10.262 2.90443 19.3859
rtibia 26.465
rfoot -17.3604 -9.96736
rtoes -6.05306
lfemur -8.42339 -0.0230968 -12.7005
ltibia 24.0421
lfoot -9.21101 4.83357
ltoes 13.6141
370
root 12.304 17.7684 -13.7829 1.19479 -24.0186 4.04428
lowerback -0.185696 -0.300175 -4.05844
upperback 1.66888 -0.360106 0.313026
thorax 1.84659 -0.245558 2.59034
lowerneck -11.0049 0.96938 0.00904794
upperneck 22.6405 2.61148 -5.7847
head 8.98202 0.578319 -1.6922
rclavicle -5.11871e-015 2.78299e-015
rhumerus -35.1505 -16.7099 -74.095
rradius 30.6494
rwrist 17.4014
rhand -23.799 23.6856
rfingers 7.12502
rthumb 2.67146 -6.27744
lclavicle -5.11871e-015 2.78299e-015
lhumerus -34.7379 18.1757 81.2756
lradius 30.4061
lwrist -24.1096
lhand -11.5721 28.621
lfingers 7.12502
lthumb 14.4693 58.0965
rfemur -10.296 2.87558 19.474
rtibia 26.4091
rfoot -17.2884 -9.90384
rtoes -6.35436
lfemur -8.01548 -0.849629 -12.6941
ltibia 23.3465
lfoot -9.4819 5.97074
ltoes 14.8671
371
root 12.3162 17.7643 -13.7697 1.40796 -24.019 3.79896
lowerback -0.368458 -0.459217 -4.09224
upperback 1.51546 -0.569039 0.510167
thorax 1.80975 -0.348579 2.80774
lowerneck -11.0961 0.955133 -0.443389
upperneck 23.0848 2.66517 -5.61085
head 9.14884 0.568583 -1.55573
rclavicle 2.34566e-014 1.11319e-014
rhumerus -34.9123 -15.7521 -74.2033
rradius 30.8846
rwrist 16.5662
rhand -23.4241 23.5039
rfingers 7.12502
rthumb 3.03352 -6.45425
lclavicle 2.34566e-014 1.11319e-014
lhumerus -35.3497 19.787 80.631
lradius 29.8392
lwrist -24.9287
lhand -11.3841 28.9576
lfingers 7.12502
lthumb 14.6504 58.42
rfemur -10.3182 3.07164 19.657
rtibia 26.2584
rfoot -17.2725 -9.97257
rtoes -6.40112
lfemur -7.69429 -1.3459 -12.5998
ltibia 22.6302
lfoot -9.51886 7.38093
ltoes 15.392
372
root 12.3319 17.7623 -13.7572 1.59963 -23.863 3.40799
lowerback -0.35481 -0.482054 -3.91069
upperback 1.30394 -0.607011 0.609587
thorax 1.58613 -0.357547 2.80851
lowerneck -10.9996 0.827739 -0.721743
upperneck 23.4892 2.47268 -5.24909
head 9.25776 0.483362 -1.41071
rclavicle -2.11706e-014 5.96354e-015
rhumerus -35.1481 -15.1791 -74.1465
rradius 31.1967
rwrist 15.8118
rhand -23.2176 22.8309
rfingers 7.12502
rthumb 3.23291 -7.12434
lclavicle -2.11706e-014 5.96354e-015
lhumerus -35.8171 20.5955 80.0513
lradius 29.0469
lwrist -25.6643
lhand -11.0736 28.7233
lfingers 7.12502
lthumb 14.9496 58.1637
rfemur -10.1984 3.40831 20.0058
rtibia 26.0412
rfoot -17.2302 -10.3204
rtoes -6.01706
lfemur -7.3691 -1.68758 -12.3564
ltibia 21.903
lfoot -9.59299 8.30486
ltoes 14.6842
